<svg xmlns="http://www.w3.org/2000/svg" width="103" height="116" viewBox="0 0 103 116"><defs><clipPath id="yxaca"><path fill="#fff" d="M31 35.5C31 41.851 36.149 47 42.5 47S54 41.85 54 35.5 48.85 24 42.5 24 31 29.149 31 35.5zm36 19C67 60.85 72.149 66 78.5 66S90 60.851 90 54.5 84.851 43 78.5 43 67 48.149 67 54.5zm-5-43C62 17.85 67.149 23 73.5 23S85 17.85 85 11.5 79.851 0 73.5 0 62 5.149 62 11.5zM0 116h41l35-8s24.667-25.167 27-27C91.667 67.167 73 93 73 93s-17.5.833-22 1c-4.5.167-14-10-14-10s24.833-10.833 15-21l-31 8L0 83z"/></clipPath></defs><g><g><path fill="none" stroke="#eee" stroke-miterlimit="20" stroke-width="6" d="M31 35.5C31 41.851 36.149 47 42.5 47S54 41.85 54 35.5 48.85 24 42.5 24 31 29.149 31 35.5zm36 19C67 60.85 72.149 66 78.5 66S90 60.851 90 54.5 84.851 43 78.5 43 67 48.149 67 54.5zm-5-43C62 17.85 67.149 23 73.5 23S85 17.85 85 11.5 79.851 0 73.5 0 62 5.149 62 11.5zM0 116h41l35-8s24.667-25.167 27-27C91.667 67.167 73 93 73 93s-17.5.833-22 1c-4.5.167-14-10-14-10s24.833-10.833 15-21l-31 8L0 83z" clip-path="url(&quot;#yxaca&quot;)"/></g></g></svg>